<svg width="158" height="231" viewBox="0 0 158 231" fill="none" xmlns="http://www.w3.org/2000/svg">
<path d="M40.19 15.29C46.7492 12.4992 54.1102 12.2391 60.85 14.56C64.2083 15.7209 67.3811 17.3612 70.27 19.43C72.97 21.29 75.27 23.11 77.49 24.54C78.81 25.39 80.09 26.18 81.33 26.87C82.57 27.56 83.78 28 85 28.56C87.5504 29.4904 90.2081 30.0952 92.91 30.36C98.3862 30.8124 103.888 29.8805 108.91 27.65C109.16 28.16 108.67 29.36 109.61 29.2C113.36 28.37 113.92 29.08 114.53 30.12C114.67 30.36 114.01 30.77 113.46 31.12C112.91 31.47 112.46 31.63 113.01 31.65C110.31 33.24 105.29 34.98 108.51 34.54C109.593 34.4331 110.647 34.128 111.62 33.64C112.587 33.0861 113.661 32.7451 114.77 32.64C116.15 32.79 114.63 34.71 116.02 34.86C117.395 34.0811 118.724 33.223 120 32.29C121.3 32.02 120 34.38 121 33.66C124.34 31.95 127.88 28.19 130.51 23.9C130.75 24.05 131.14 23.97 131.35 24.1C131.56 24.23 131.63 24.55 130.97 25.72C124.63 35.37 114.14 41.5 103.05 43.43C97.3921 44.4285 91.5897 44.2583 86 42.93C83.1315 42.2595 80.3523 41.2525 77.72 39.93C75.1921 38.6696 72.7911 37.1694 70.55 35.45C66.36 32.32 62.95 29.45 59.72 27.87C56.526 26.327 52.9728 25.6806 49.44 26C45.9489 26.2756 42.6038 27.5188 39.78 29.59C36.9209 31.6823 34.6621 34.4894 33.23 37.73C31.93 40.62 31.43 38.11 31.85 35.25C31.74 36.18 30.93 35.81 30.85 36.77C30.1 36.53 29.27 34.05 31.44 30.5C30.8504 31.3043 30.303 32.1388 29.8 33C29.07 33.76 29.05 32.6 28.56 32.31C29.09 31.37 29.68 30.47 29.46 30.31L28.46 29.68C27.617 30.9518 26.878 32.2894 26.25 33.68C26.71 32.68 27.25 31.68 27.03 31.52L26.03 30.96C26.92 28.68 29.57 26.16 31.09 24.35L30.49 23.74C28.49 25.24 26.43 28.38 25.28 30.55C25.7 29.31 25.49 29.17 25 28.87C26.81 25.4 30 23.15 32.47 20.19C31.4477 20.9677 30.4758 21.8093 29.56 22.71C29.97 21.29 31.68 19.71 33.79 18.38C35.8428 17.191 37.9822 16.158 40.19 15.29Z" fill="#50E3C2"/>
<path d="M40.19 189.8C46.7494 187.008 54.1121 186.751 60.85 189.08C64.2095 190.234 67.3829 191.871 70.27 193.94C72.97 195.8 75.27 197.63 77.49 199.06C78.81 199.9 80.09 200.7 81.33 201.38C82.57 202.06 83.78 202.52 85.01 203.07C87.5576 204.01 90.2165 204.615 92.92 204.87C98.3953 205.326 103.897 204.397 108.92 202.17C109.17 202.68 108.68 203.87 109.62 203.72C113.37 202.88 113.93 203.6 114.54 204.63C114.68 204.88 114.02 205.28 113.47 205.63C112.92 205.98 112.47 206.14 113.02 206.17C110.32 207.75 105.3 209.49 108.52 209.06C109.602 208.948 110.655 208.643 111.63 208.16C112.597 207.607 113.671 207.266 114.78 207.16C116.16 207.31 114.64 209.24 116.03 209.38C117.404 208.601 118.73 207.74 120 206.8C121.3 206.53 120 208.9 121 208.17C124.34 206.46 127.88 202.7 130.51 198.41C130.75 198.56 131.14 198.48 131.35 198.61C131.56 198.74 131.63 199.06 130.97 200.24C124.61 209.88 114.12 216.02 103.03 217.94C97.3627 218.947 91.5487 218.777 85.95 217.44C83.0828 216.765 80.304 215.758 77.67 214.44C75.1547 213.184 72.7612 211.697 70.52 210C66.33 206.86 62.92 204 59.69 202.41C56.5062 200.867 52.9653 200.21 49.44 200.51C45.9489 200.786 42.6038 202.029 39.78 204.1C36.9209 206.192 34.6621 208.999 33.23 212.24C31.93 215.13 31.43 212.62 31.85 209.76C31.74 210.69 30.93 210.33 30.85 211.29C30.1 211.04 29.27 208.57 31.44 205.01C30.8449 205.837 30.2941 206.695 29.79 207.58C29.06 208.35 29.04 207.18 28.55 206.89C29.08 205.95 29.67 205.05 29.45 204.89L28.45 204.25C27.6053 205.521 26.8662 206.859 26.24 208.25C26.7 207.25 27.24 206.25 27.02 206.08L26.02 205.53C26.91 203.24 29.56 200.73 31.08 198.91L30.48 198.31C28.48 199.8 26.42 202.94 25.27 205.11C25.63 203.9 25.42 203.75 24.93 203.45C26.74 199.98 29.93 197.74 32.4 194.77C31.3777 195.548 30.4058 196.389 29.49 197.29C29.9 195.88 31.61 194.29 33.72 192.96C35.7954 191.748 37.9581 190.692 40.19 189.8Z" fill="#50E3C2"/>
<path d="M53.32 132.415L54.25 133.215C53.05 134.602 51.7567 135.595 50.37 136.195C48.9834 136.802 47.3067 137.105 45.34 137.105C42.7534 137.105 40.71 136.558 39.21 135.465C37.7167 134.365 36.7467 132.498 36.3 129.865L35.09 123.165C34.51 119.905 33.8067 117.505 32.98 115.965C32.1534 114.425 30.78 113.655 28.86 113.655H24.51V129.065C24.51 130.758 24.63 131.985 24.87 132.745C25.1167 133.505 25.5767 134.018 26.25 134.285C26.9167 134.558 28.01 134.738 29.53 134.825V136.165C27.1167 136.032 23.7434 135.965 19.41 135.965C14.6367 135.965 11.11 136.032 8.83002 136.165V134.825C10.3034 134.738 11.3867 134.558 12.08 134.285C12.7734 134.018 13.24 133.505 13.48 132.745C13.7267 131.985 13.85 130.758 13.85 129.065V95.835C13.85 94.135 13.7267 92.905 13.48 92.145C13.24 91.385 12.7734 90.8717 12.08 90.605C11.3867 90.3383 10.3034 90.1583 8.83002 90.065V88.725C11.11 88.865 14.5034 88.935 19.01 88.935L26.45 88.865C27.3433 88.8183 28.37 88.795 29.53 88.795C35.6967 88.795 40.33 89.8017 43.43 91.815C46.5367 93.8217 48.09 96.7017 48.09 100.455C48.09 103.628 46.93 106.418 44.61 108.825C42.2834 111.238 38.44 112.758 33.08 113.385C37.1 113.745 40.0933 114.615 42.06 115.995C44.0267 117.382 45.3 119.458 45.88 122.225L47.42 129.125C47.78 130.912 48.1934 132.165 48.66 132.885C49.1267 133.598 49.7867 133.955 50.64 133.955C51.1734 133.908 51.63 133.775 52.01 133.555C52.39 133.328 52.8267 132.948 53.32 132.415ZM28.66 90.065C27.4534 90.065 26.57 90.2217 26.01 90.535C25.4567 90.8483 25.0667 91.4083 24.84 92.215C24.62 93.015 24.51 94.2217 24.51 95.835V112.315H27.39C31.05 112.315 33.56 111.342 34.92 109.395C36.2867 107.455 36.97 104.722 36.97 101.195C36.97 97.5283 36.3233 94.7583 35.03 92.885C33.73 91.005 31.6067 90.065 28.66 90.065ZM74.22 131.605C77.88 131.605 80.8267 129.818 83.06 126.245L84.27 126.655C83.3767 129.555 81.78 132.022 79.48 134.055C77.18 136.088 74.31 137.105 70.87 137.105C66.1367 137.105 62.3734 135.598 59.58 132.585C56.7867 129.565 55.39 125.108 55.39 119.215C55.39 113.182 56.8867 108.568 59.88 105.375C62.8734 102.182 66.85 100.585 71.81 100.585C80.2034 100.585 84.4 105.545 84.4 115.465H65.58C65.5334 116.132 65.51 117.182 65.51 118.615C65.51 121.562 65.9234 124.018 66.75 125.985C67.5767 127.945 68.65 129.372 69.97 130.265C71.2833 131.158 72.7 131.605 74.22 131.605ZM71.41 101.995C69.7967 101.995 68.4667 102.988 67.42 104.975C66.3734 106.962 65.7134 110.032 65.44 114.185H75.96C76.0534 110.658 75.7067 107.745 74.92 105.445C74.14 103.145 72.97 101.995 71.41 101.995ZM101.96 83.705V129.935C101.96 131.768 102.273 133.028 102.9 133.715C103.52 134.408 104.637 134.755 106.25 134.755V136.165C101.603 135.985 98.61 135.895 97.27 135.895C95.75 135.895 92.6667 135.985 88.02 136.165V134.755C89.5867 134.755 90.6934 134.408 91.34 133.715C91.9867 133.028 92.31 131.768 92.31 129.935V91.745C92.31 89.6917 91.9867 88.195 91.34 87.255C90.6934 86.315 89.5867 85.845 88.02 85.845V84.445C89.4534 84.5783 90.84 84.645 92.18 84.645C96.0667 84.645 99.3267 84.3317 101.96 83.705ZM133.18 100.585C135.5 100.585 137.567 101.212 139.38 102.465C141.187 103.712 142.603 105.588 143.63 108.095C144.657 110.595 145.17 113.655 145.17 117.275C145.17 123.662 143.777 128.562 140.99 131.975C138.197 135.395 134.41 137.105 129.63 137.105C128.29 137.105 127.027 136.925 125.84 136.565C124.66 136.212 123.647 135.675 122.8 134.955V141.655C122.8 143.622 123.29 144.985 124.27 145.745C125.25 146.505 126.77 146.885 128.83 146.885V148.295L127.02 148.225C122.06 148.092 118.91 148.025 117.57 148.025C116.23 148.025 113.417 148.115 109.13 148.295V146.885C110.603 146.885 111.64 146.562 112.24 145.915C112.847 145.268 113.15 144.072 113.15 142.325V108.825C113.15 106.772 112.827 105.275 112.18 104.335C111.527 103.402 110.42 102.935 108.86 102.935V101.525C110.287 101.658 111.67 101.725 113.01 101.725C116.897 101.725 120.16 101.412 122.8 100.785V106.955C123.733 104.902 125.093 103.325 126.88 102.225C128.667 101.132 130.767 100.585 133.18 100.585ZM127.02 135.295C129.873 135.295 131.927 133.875 133.18 131.035C134.433 128.202 135.06 124.062 135.06 118.615C135.06 113.162 134.557 109.275 133.55 106.955C132.543 104.628 131.103 103.465 129.23 103.465C127.71 103.465 126.357 103.978 125.17 105.005C123.99 106.038 123.2 107.468 122.8 109.295V133.485C123.867 134.692 125.273 135.295 127.02 135.295Z" fill="#343A40"/>
</svg>
