<svg width="384" height="512" viewBox="0 0 384 512" fill="none" xmlns="http://www.w3.org/2000/svg">
<g clip-path="url(#clip0_0_1)">
<path d="M223.5 32C100 32 0 132.3 0 256C0 379.7 100 480 223.5 480C284.1 480 339 455.8 379.3 416.6C384.3 411.7 385.6 404.1 382.4 397.9C379.2 391.7 372.3 388.2 365.4 389.4C355.6 391.1 345.6 392 335.3 392C238.4 392 159.8 313.2 159.8 216C159.8 150.2 195.8 92.9 249.1 62.7C255.2 59.2 258.3 52.2 256.8 45.4C255.3 38.6 249.5 33.5 242.5 32.9C236.2 32.4 229.9 32.1 223.5 32.1V32Z" fill="black"/>
<g clip-path="url(#clip1_0_1)">
<path d="M332.26 65.6875C331.753 64.6562 330.684 64 329.51 64C328.335 64 327.275 64.6562 326.76 65.6875L320.62 78.0906L306.908 80.0781C305.762 80.2469 304.807 81.0344 304.454 82.1125C304.101 83.1906 304.387 84.3812 305.208 85.1781L315.158 94.8438L312.809 108.503C312.618 109.628 313.095 110.772 314.041 111.438C314.986 112.103 316.237 112.187 317.268 111.653L329.519 105.231L341.77 111.653C342.801 112.187 344.052 112.112 344.997 111.438C345.943 110.763 346.42 109.628 346.229 108.503L343.871 94.8438L353.82 85.1781C354.641 84.3812 354.937 83.1906 354.575 82.1125C354.212 81.0344 353.266 80.2469 352.121 80.0781L338.399 78.0906L332.26 65.6875Z" fill="black"/>
</g>
<g clip-path="url(#clip2_0_1)">
<path d="M341.907 167.371C341.557 166.533 340.818 166 340.007 166C339.195 166 338.463 166.533 338.107 167.371L333.865 177.449L324.391 179.063C323.599 179.201 322.94 179.84 322.695 180.716C322.451 181.592 322.649 182.56 323.217 183.207L330.091 191.061L328.468 202.159C328.336 203.073 328.666 204.002 329.319 204.543C329.972 205.084 330.836 205.152 331.549 204.718L340.013 199.5L348.477 204.718C349.19 205.152 350.054 205.091 350.707 204.543C351.36 203.995 351.69 203.073 351.558 202.159L349.929 191.061L356.803 183.207C357.37 182.56 357.575 181.592 357.324 180.716C357.074 179.84 356.42 179.201 355.629 179.063L346.149 177.449L341.907 167.371Z" fill="black"/>
</g>
<g clip-path="url(#clip3_0_1)">
<path d="M248.907 141.371C248.557 140.533 247.818 140 247.007 140C246.195 140 245.463 140.533 245.107 141.371L240.865 151.449L231.391 153.063C230.599 153.201 229.94 153.84 229.695 154.716C229.451 155.592 229.649 156.56 230.217 157.207L237.091 165.061L235.468 176.159C235.336 177.073 235.666 178.002 236.319 178.543C236.972 179.084 237.836 179.152 238.549 178.718L247.013 173.5L255.477 178.718C256.19 179.152 257.054 179.091 257.707 178.543C258.36 177.995 258.69 177.073 258.558 176.159L256.929 165.061L263.803 157.207C264.37 156.56 264.575 155.592 264.324 154.716C264.074 153.84 263.42 153.201 262.629 153.063L253.149 151.449L248.907 141.371Z" fill="black"/>
</g>
</g>
<defs>
<clipPath id="clip0_0_1">
<rect width="384" height="512" fill="white"/>
</clipPath>
<clipPath id="clip1_0_1">
<rect width="55" height="48" fill="white" transform="translate(302 64)"/>
</clipPath>
<clipPath id="clip2_0_1">
<rect width="38" height="39" fill="white" transform="translate(321 166)"/>
</clipPath>
<clipPath id="clip3_0_1">
<rect width="38" height="39" fill="white" transform="translate(228 140)"/>
</clipPath>
</defs>
</svg>
