<svg width="600" height="600" viewBox="0 0 600 600" fill="none" xmlns="http://www.w3.org/2000/svg">
<path fill-rule="evenodd" clip-rule="evenodd" d="M571 300C571 449.669 449.669 571 300 571C150.331 571 29 449.669 29 300C29 150.331 150.331 29 300 29C449.669 29 571 150.331 571 300ZM600 300C600 465.685 465.685 600 300 600C134.315 600 0 465.685 0 300C0 134.315 134.315 0 300 0C465.685 0 600 134.315 600 300ZM169.75 297.778L150.463 321.265C144.311 318.351 137.67 316.805 130.688 316.805C100.463 316.805 76 346.596 76 383.403C76 420.21 100.463 450 130.688 450C160.912 450 185.375 420.21 185.375 383.403C185.375 374.9 184.057 366.813 181.713 359.321L201 335.833L220.287 359.321C217.895 366.813 216.625 374.9 216.625 383.403C216.625 420.21 241.088 450 271.312 450C301.537 450 326 420.21 326 383.403C326 346.596 301.537 316.805 271.312 316.805C264.33 316.805 257.689 318.411 251.537 321.265L113.5 153.166C110.033 148.945 104.467 148.945 101 153.166C87.1816 169.994 87.1816 197.228 101 214.055L169.75 297.778ZM243.285 284.339L301 214.055C314.818 197.228 314.818 169.994 301 153.166C297.533 148.945 291.967 148.945 288.5 153.166L212.035 246.284L243.285 284.339ZM130.688 411.944C127.61 411.944 124.562 411.206 121.718 409.772C118.875 408.337 116.291 406.235 114.115 403.585C111.938 400.934 110.212 397.788 109.034 394.325C107.856 390.862 107.25 387.151 107.25 383.403C107.25 379.655 107.856 375.943 109.034 372.48C110.212 369.017 111.938 365.871 114.115 363.221C116.291 360.57 118.875 358.468 121.718 357.034C124.562 355.599 127.61 354.861 130.688 354.861C133.765 354.861 136.813 355.599 139.657 357.034C142.5 358.468 145.084 360.57 147.26 363.221C149.437 365.871 151.163 369.017 152.341 372.48C153.519 375.943 154.125 379.655 154.125 383.403C154.125 387.151 153.519 390.862 152.341 394.325C151.163 397.788 149.437 400.934 147.26 403.585C145.084 406.235 142.5 408.337 139.657 409.772C136.813 411.206 133.765 411.944 130.688 411.944ZM247.875 383.403C247.875 379.655 248.481 375.943 249.659 372.48C250.837 369.017 252.563 365.871 254.74 363.221C256.916 360.57 259.5 358.468 262.343 357.034C265.187 355.599 268.235 354.861 271.312 354.861C274.39 354.861 277.438 355.599 280.282 357.034C283.125 358.468 285.709 360.57 287.885 363.221C290.062 365.871 291.788 369.017 292.966 372.48C294.144 375.943 294.75 379.655 294.75 383.403C294.75 387.151 294.144 390.862 292.966 394.325C291.788 397.788 290.062 400.934 287.885 403.585C285.709 406.235 283.125 408.337 280.282 409.772C277.438 411.206 274.39 411.944 271.312 411.944C268.235 411.944 265.187 411.206 262.343 409.772C259.5 408.337 256.916 406.235 254.74 403.585C252.563 400.934 250.837 397.788 249.659 394.325C248.481 390.862 247.875 387.151 247.875 383.403ZM356 178.125C356 162.598 368.598 150 384.125 150H477.875C493.402 150 506 162.598 506 178.125V206.25H459.125C453.969 206.25 449.75 210.469 449.75 215.625C449.75 220.781 453.969 225 459.125 225H506V262.5H459.125C453.969 262.5 449.75 266.719 449.75 271.875C449.75 277.031 453.969 281.25 459.125 281.25H506V318.75H459.125C453.969 318.75 449.75 322.969 449.75 328.125C449.75 333.281 453.969 337.5 459.125 337.5H506V375H459.125C453.969 375 449.75 379.219 449.75 384.375C449.75 389.531 453.969 393.75 459.125 393.75H506V421.875C506 437.402 493.402 450 477.875 450H384.125C368.598 450 356 437.402 356 421.875V178.125Z" fill="black"/>
</svg>
