<svg width="20" height="23" viewBox="0 0 20 23" fill="none" xmlns="http://www.w3.org/2000/svg">
<g clip-path="url(#clip0_0_1)">
<path d="M0.419656 10.4196C-0.13838 10.9777 -0.13838 11.8839 0.419656 12.442L7.56251 19.5848C8.12055 20.1429 9.0268 20.1429 9.58483 19.5848C10.1429 19.0268 10.1429 18.1205 9.58483 17.5625L4.87501 12.8571H18.5714C19.3616 12.8571 20 12.2187 20 11.4286C20 10.6384 19.3616 10 18.5714 10H4.87948L9.58037 5.29464C10.1384 4.7366 10.1384 3.83035 9.58037 3.27232C9.02234 2.71428 8.11609 2.71428 7.55805 3.27232L0.415192 10.4152L0.419656 10.4196Z" fill="white"/>
</g>
<defs>
<clipPath id="clip0_0_1">
<rect width="20" height="22.8571" fill="white"/>
</clipPath>
</defs>
</svg>
