<svg width="704" height="512" viewBox="0 0 704 512" fill="none" xmlns="http://www.w3.org/2000/svg">
<path fill-rule="evenodd" clip-rule="evenodd" d="M210.6 5.9L62 169.4C58.1 173.6 56 179.2 56 184.9C56 197.7 66.3 208 79.1 208H104L30.6 281.4C26.4 285.6 24 291.4 24 297.4C24 309.9 34.1 320 46.6 320H80L5.39999 409.5C1.89999 413.7 0 419 0 424.5C0 437.5 10.5 448 23.5 448H192V480C192 497.7 206.3 512 224 512C241.7 512 256 497.7 256 480V448H424.5C437.5 448 448 437.5 448 424.5C448 419 446.1 413.7 442.6 409.5L368 320H401.4C413.9 320 424 309.9 424 297.4C424 291.4 421.6 285.6 417.4 281.4L344 208H368.9C381.6 208 392 197.7 392 184.9C392 179.2 389.9 173.6 386 169.4L237.4 5.9C234 2.1 229.1 0 224 0C218.9 0 214 2.1 210.6 5.9ZM97.4375 168.847L213.531 26.1493C216.188 22.8328 220.016 21 224 21C227.984 21 231.812 22.8328 234.469 26.1493L350.562 168.847C353.609 172.512 355.25 177.4 355.25 182.375C355.25 193.546 347.125 202.536 337.203 202.536H317.75L375.094 266.597C378.375 270.263 380.25 275.325 380.25 280.561C380.25 291.471 372.359 300.286 362.594 300.286H336.5L394.781 378.398C397.516 382.064 399 386.69 399 391.49C399 402.836 390.797 412 380.641 412H362.281H249H199H86.5H67.3594C57.2031 412 49 402.836 49 391.49C49 386.69 50.4844 382.064 53.2188 378.398L111.5 300.286H85.4062C75.6406 300.286 67.75 291.471 67.75 280.561C67.75 275.325 69.625 270.263 72.9062 266.597L130.25 202.536H110.797C100.797 202.536 92.75 193.546 92.75 182.375C92.75 177.4 94.3906 172.512 97.4375 168.847ZM670 176C671 171 672 166 672 160C672 107 629 64 576 64C522 64 480 107 480 160C480 166 480 171 481 176C461 190 448 214 448 240C448 285 483 320 528 320H544V480C544 498 558 512 576 512C593 512 608 498 608 480V320H624C668 320 704 285 704 240C704 214 690 190 670 176ZM651 174C651 178.688 650.219 182.594 649.438 186.5C665.062 197.438 676 216.188 676 236.5C676 271.656 647.875 299 613.5 299H601V299.781H551V299H538.5C503.344 299 476 271.656 476 236.5C476 216.188 486.156 197.438 501.781 186.5C501 182.594 501 178.688 501 174C501 132.594 533.812 99 576 99C617.406 99 651 132.594 651 174Z" fill="black"/>
</svg>
