<svg width="512" height="512" viewBox="0 0 512 512" fill="none" xmlns="http://www.w3.org/2000/svg">
<path fill-rule="evenodd" clip-rule="evenodd" d="M225.3 128L190.5 68.8C183 55.9 169.1 48 154.2 48H152C129.9 48 112 65.9 112 88C112 110.1 129.9 128 152 128H224H225.3ZM73.6 128C67.5 116 64 102.4 64 88C64 39.4 103.4 0 152 0H154.2C186.1 0 215.7 16.9 231.9 44.5L256 85.5L280.1 44.4C296.3 16.9 325.9 0 357.8 0H360C408.6 0 448 39.4 448 88C448 102.4 444.5 116 438.4 128H480C497.7 128 512 142.3 512 160V224C512 241.7 497.7 256 480 256V288V441V464C480 490.5 458.5 512 432 512H288H224H80C53.5 512 32 490.5 32 464V424V288V256C14.3 256 0 241.7 0 224V160C0 142.3 14.3 128 32 128H73.6ZM447 256V288V323V330V402V469C447 471.761 444.761 474 442 474H379H318H288V402V330V288V273V256H447ZM63 256H224V280V288V330V409V474H192H133H68C65.2386 474 63 471.761 63 469V409V330V321V288V256ZM288 207V225H463V163H288V207ZM360 128C382.1 128 400 110.1 400 88C400 65.9 382.1 48 360 48H357.8C342.9 48 329.1 55.9 321.5 68.8L286.7 128H288H360ZM223 163H48V225H223V163Z" fill="black"/>
</svg>
