<svg width="50" height="50" viewBox="0 0 50 50" fill="none" xmlns="http://www.w3.org/2000/svg">
<g clip-path="url(#clip0_0_1)">
<path fill-rule="evenodd" clip-rule="evenodd" d="M1.9431 4H0V46H41.2489L39.3769 44H2V6H3.80806L2.02505 4.09511C1.99618 4.06427 1.96887 4.03254 1.9431 4ZM5.68011 8H4V30.7812C3.97266 30.9141 3.97266 31.0547 4 31.1875V42H37.5048L35.6328 40H6V31.4688L17.6074 20.7425L16.2188 19.2591L6 28.6875V10H7.55215L5.68011 8ZM11.6613 10L9.78927 8H46V36.75C46.0273 36.8828 46.0273 37.0234 46 37.1562V42H41.614L39.7419 40H44V37.4375L34 27.4375L30.8807 30.533L29.5022 29.0603L33.2812 25.2812C33.4414 25.125 33.6523 25.0234 33.875 25C34.1836 24.957 34.4961 25.0625 34.7188 25.2812L44 34.5625V10H11.6613ZM28.7589 32.6562L27.3797 31.1828L25.2812 33.2812C24.8828 33.6797 24.8828 34.3203 25.2812 34.7188C25.6797 35.1172 26.3203 35.1172 26.7188 34.7188L28.7589 32.6562ZM43.486 44H48V6H7.91723L6.04518 4H50V46H45.3581L43.486 44ZM32 18C32 16.3438 33.3438 15 35 15C36.6562 15 38 16.3438 38 18C38 19.6562 36.6562 21 35 21C33.3438 21 32 19.6562 32 18Z" fill="black"/>
<line x1="2.41351" y1="1.04464" x2="47.0446" y2="48.5865" stroke="black" stroke-width="2" stroke-linecap="round"/>
</g>
<defs>
<clipPath id="clip0_0_1">
<rect width="50" height="50" fill="white"/>
</clipPath>
</defs>
</svg>
