<svg width="512" height="512" viewBox="0 0 512 512" fill="none" xmlns="http://www.w3.org/2000/svg">
<path fill-rule="evenodd" clip-rule="evenodd" d="M193.9 189.7C226.2 179.1 240.8 135.8 226.5 92.9C212.2 50 174.4 23.8 142.1 34.4C109.8 45 95.2 88.3 109.5 131.2C123.8 174.1 161.6 200.3 193.9 189.7ZM90.2 282.7C114.7 268.7 119.3 231 100.4 198.6H100.3C81.5 166.2 46.3 151.3 21.8 165.3C-2.7 179.3 -7.1 217 11.7 249.4C30.5 281.8 65.7 296.7 90.2 282.7ZM256 224C214.7 224 121.6 259.9 69.2 401.2C65.6 410.9 64 421.3 64 431.7V433.3C64 459.1 84.9 480 110.7 480C122.2 480 133.6 478.6 144.7 475.8L232.7 453.8C248 450 264 450 279.3 453.8L367.3 475.8C378.4 478.6 389.8 480 401.3 480C427.1 480 448 459.1 448 433.3V431.7C448 421.3 446.4 410.9 442.8 401.2C390.4 259.9 297.3 224 256 224ZM411.6 198.6C392.7 231 397.3 268.7 421.8 282.7C446.3 296.7 481.4 281.8 500.3 249.4C519.2 217 514.6 179.3 490.1 165.3C465.6 151.3 430.5 166.2 411.6 198.6ZM277.5 92.9C263.2 135.8 277.8 179.1 310.1 189.7C342.4 200.3 380.2 174.1 394.5 131.2C408.8 88.3 394.2 45 361.9 34.4C329.6 23.8 291.8 50 277.5 92.9ZM110.062 394.438C151 284.047 223.734 256 256 256C288.266 256 361 284.047 401.937 394.438C404.75 402.016 406 410.141 406 418.266V419.516C406 439.672 389.672 456 369.516 456C360.531 456 351.625 454.906 342.953 452.719L274.203 435.531C262.25 432.562 249.75 432.562 237.797 435.531L169.047 452.719C160.375 454.906 151.469 456 142.484 456C122.328 456 106 439.672 106 419.516V418.266C106 410.141 107.25 402.016 110.062 394.438Z" fill="black"/>
</svg>
